<svg xmlns="http://www.w3.org/2000/svg" xmlns:xlink="http://www.w3.org/1999/xlink" viewBox="0 0 759 838"><defs><style>.a,.i{fill:none;}.b{clip-path:url(#a);}.c{fill:#00a99d;}.d{fill:#009245;}.e{fill:#ffd6b4;}.f{fill:#ffc59f;}.g{fill:#8c6239;}.h,.j{fill:#fff;}.h,.i{stroke:#000;stroke-miterlimit:10;stroke-width:2px;}.k{fill:#754c24;}.l{fill:#603813;}</style><clipPath id="a" transform="translate(-538 -131)"><circle class="a" cx="917.5" cy="510.5" r="379.5"/></clipPath></defs><g class="b"><circle class="c" cx="379.5" cy="379.5" r="379.5"/><ellipse class="d" cx="367" cy="643" rx="242" ry="195"/><path class="e" d="M352,358h32a12,12,0,0,1,12,12v92a28,28,0,0,1-28,28h0a28,28,0,0,1-28-28V370A12,12,0,0,1,352,358Z"/><ellipse class="f" cx="768.78" cy="355.5" rx="30.78" ry="52.5" transform="translate(-569.94 -51.63) rotate(-5.79)"/><ellipse class="f" cx="1044.51" cy="355.3" rx="52.5" ry="30.78" transform="translate(47.65 1227.64) rotate(-84.21)"/><ellipse class="e" cx="368" cy="237.5" rx="126" ry="152.5"/><path class="g" d="M906,390s-35-21-49,0c0,0-31-11-42,0,0,0-28.79-38.13-35-7,0,0-18,51,0,77,0,0-4,44,18,61,0,0,13,44,64,43,0,0,73,33,85,0,0,0,50,7,60-24,0,0,28-19,25-51,0,0,29-92,0-116,0,0-24-2-32,8,0,0-40-22-47,8C953,389,952,368,906,390Z" transform="translate(-538 -131)"/><path class="h" d="M816,422s29,28,90,29,96-36,96-36-21,91-96,95S816,422,816,422Z" transform="translate(-538 -131)"/><path class="h" d="M830,463s85.25,34.13,151.12-.44" transform="translate(-538 -131)"/><path class="i" d="M997,403s5,13,17,17" transform="translate(-538 -131)"/><path class="i" d="M819.78,409.23s-5,13-17,17" transform="translate(-538 -131)"/><ellipse class="f" cx="367.19" cy="214" rx="12" ry="60"/><ellipse class="f" cx="913.52" cy="395.04" rx="13.92" ry="8.27" transform="translate(-613.13 378.69) rotate(-30)"/><ellipse class="f" cx="898.43" cy="395.6" rx="8.27" ry="13.92" transform="translate(-431.38 844.86) rotate(-60)"/><ellipse class="j" cx="309" cy="204.5" rx="31" ry="40.5"/><ellipse class="j" cx="430" cy="197.5" rx="31" ry="40.5"/><ellipse class="k" cx="308.5" cy="207" rx="15.5" ry="26"/><ellipse class="k" cx="430.5" cy="201" rx="15.5" ry="26"/><ellipse cx="309" cy="209" rx="6" ry="13"/><ellipse cx="430" cy="201" rx="6" ry="13"/><circle class="j" cx="315" cy="202" r="4"/><circle class="j" cx="302.5" cy="216.5" r="5.5"/><circle class="j" cx="436" cy="194" r="4"/><circle class="j" cx="423.5" cy="208.5" r="5.5"/><path class="j" d="M944,302.86s7-19.53,34-12.69c0,0,10,4.54,14,12.69" transform="translate(-538 -131)"/><path d="M944,302.86a18.1,18.1,0,0,1,4.58-9.33,23,23,0,0,1,9-6.11l2.63-.81a7.51,7.51,0,0,1,1.33-.29l1.35-.22a30.62,30.62,0,0,1,5.4-.34h.68l.66.07,1.32.14c.89.09,1.77.21,2.65.33,1.71.37,3.41.81,5.09,1.25l.15,0a1.66,1.66,0,0,1,.31.12c.86.47,1.54.9,2.26,1.38s1.4,1,2.07,1.51a31.41,31.41,0,0,1,3.72,3.48,24.17,24.17,0,0,1,3,4.11,16.6,16.6,0,0,1,1.82,4.67,32.7,32.7,0,0,0-3.43-3.35,40.3,40.3,0,0,0-3.73-2.72c-1.29-.83-2.6-1.59-3.94-2.3-.67-.35-1.35-.69-2-1s-1.39-.65-2-.87l.46.16c-1.56-.22-3.11-.45-4.64-.72-.77-.05-1.54-.09-2.31-.16l-1.14-.11-.58-.05h-.56a37.47,37.47,0,0,0-4.51.17,20.69,20.69,0,0,0-2.22.27l-2.18.44a26.79,26.79,0,0,0-8.19,3.62A28.68,28.68,0,0,0,944,302.86Z" transform="translate(-538 -131)"/><path class="j" d="M871.41,309.84s-7-19.52-34-12.69c0,0-10,4.54-14,12.69" transform="translate(-538 -131)"/><path d="M871.41,309.84a28.71,28.71,0,0,0-7-6.61,26.79,26.79,0,0,0-8.19-3.62l-2.18-.44a20.09,20.09,0,0,0-2.22-.27,35.43,35.43,0,0,0-4.5-.16l-.57,0-.57.06-1.15.1c-.77.07-1.53.11-2.3.17-1.54.27-3.08.49-4.64.71l.45-.16c-.58.22-1.32.55-2,.87s-1.35.65-2,1c-1.34.7-2.66,1.46-3.94,2.29a39.11,39.11,0,0,0-3.73,2.73,31.72,31.72,0,0,0-3.44,3.34,17.22,17.22,0,0,1,1.82-4.67,24.57,24.57,0,0,1,3-4.11,33.19,33.19,0,0,1,3.73-3.48c.67-.52,1.35-1,2.06-1.51s1.4-.91,2.27-1.38a1.34,1.34,0,0,1,.3-.12l.15,0c1.69-.43,3.38-.88,5.1-1.25.88-.11,1.76-.24,2.64-.32l1.33-.15.66-.06h.67a29.7,29.7,0,0,1,5.4.35l1.35.21a7,7,0,0,1,1.34.3l2.63.8a23.14,23.14,0,0,1,9,6.11A18.26,18.26,0,0,1,871.41,309.84Z" transform="translate(-538 -131)"/><path class="l" d="M932.5,256.5l1,31s41-25,63-3C996.5,284.5,997.5,241.5,932.5,256.5Z" transform="translate(-538 -131)"/><path class="l" d="M873.42,260.64l-1,31s-41-25-63-3C809.42,288.64,808.42,245.64,873.42,260.64Z" transform="translate(-538 -131)"/><path class="g" d="M937,220.66S922,249,898,238c0,0-18,17-41,11,0,0-45,22-41-5,0,0-17-14,7-36,0,0-7-18,44-27,0,0,51-24,86,0,0,0,24-3,39,35,0,0,37,37,0,37C992,253,952,247.31,937,220.66Z" transform="translate(-538 -131)"/></g></svg>