<svg xmlns="http://www.w3.org/2000/svg" viewBox="0 0 1280 559" preserveAspectRatio="xMidYMid" width="1280" height="559" xmlns:xlink="http://www.w3.org/1999/xlink" style="shape-rendering:auto;display:block;background-position-x:0%;background-position-y:0%;background-size:auto;background-origin:padding-box;background-clip:border-box;fill:rgb(0, 0, 0);stroke:none;background:scroll rgb(28, 28, 28) none  repeat;width:1280px;height:559px;;animation:none"><g style="fill:rgb(0, 0, 0);stroke:none;;animation:none"><defs style="fill:rgb(0, 0, 0);stroke:none;;animation:none"><filter height="123.80" width="12" y="-6" x="-6" filterUnits="userSpaceOnUse" id="f-jwk0tkw0j4" style="fill:rgb(0, 0, 0);stroke:none;;animation:none"><feGaussianBlur result="blur1" stdDeviation="5" style="fill:rgb(0, 0, 0);stroke:none;;animation:none"></feGaussianBlur>

    
<feMorphology result="dilate" in="SourceGraphic" radius="1.25" operator="dilate" style="fill:rgb(0, 0, 0);stroke:none;;animation:none"></feMorphology>

    
<feComponentTransfer result="dark" in="dilate" style="fill:rgb(0, 0, 0);stroke:none;;animation:none"><feFuncR slope="0.33" type="linear" style="fill:rgb(0, 0, 0);stroke:none;;animation:none"></feFuncR>

    
<feFuncG slope="0.33" type="linear" style="fill:rgb(0, 0, 0);stroke:none;;animation:none"></feFuncG>

    
<feFuncB slope="0.33" type="linear" style="fill:rgb(0, 0, 0);stroke:none;;animation:none"></feFuncB></feComponentTransfer>

    
<feGaussianBlur result="blur2" in="dark" stdDeviation="2.50" style="fill:rgb(0, 0, 0);stroke:none;;animation:none"></feGaussianBlur>

    
<feMerge style="fill:rgb(0, 0, 0);stroke:none;;animation:none"><feMergeNode in="blur1" style="fill:rgb(0, 0, 0);stroke:none;;animation:none"></feMergeNode>

      
<feMergeNode in="blur2" style="fill:rgb(0, 0, 0);stroke:none;;animation:none"></feMergeNode>

      
<feMergeNode in="SourceGraphic" style="fill:rgb(0, 0, 0);stroke:none;;animation:none"></feMergeNode></feMerge></filter></defs>
<path stroke-width="1" stroke="#3a454a" d="M247.27 0L247.27 559" style="fill:rgb(0, 0, 0);stroke:rgb(58, 69, 74);;animation:none"></path>


<path filter="url(#f-jwk0tkw0j4)" fill="#dae4bf" d="M0 0L-1 111.80 A1 1 0 0 0 1 111.80 Z" transform="matrix(1,0,0,1,247.27000427246094,79.19459533691406)" style="fill:rgb(218, 228, 191);stroke:none;transform:matrix(1, 0, 0, 1, 247.27, 79.1946);;animation:none"></path>
<path stroke-width="1" stroke="#3a454a" d="M334.55 0L334.55 559" style="fill:rgb(0, 0, 0);stroke:rgb(58, 69, 74);;animation:none"></path>


<path filter="url(#f-jwk0tkw0j4)" fill="#fac090" d="M0 0L-1 111.80 A1 1 0 0 0 1 111.80 Z" transform="matrix(1,0,0,1,334.54998779296875,497.48651123046875)" style="fill:rgb(250, 192, 144);stroke:none;transform:matrix(1, 0, 0, 1, 334.55, 497.487);;animation:none"></path>
<path stroke-width="1" stroke="#3a454a" d="M421.82 0L421.82 559" style="fill:rgb(0, 0, 0);stroke:rgb(58, 69, 74);;animation:none"></path>


<path filter="url(#f-jwk0tkw0j4)" fill="#c0f6d2" d="M0 0L-1 111.80 A1 1 0 0 0 1 111.80 Z" transform="matrix(1,0,0,1,421.82000732421875,360.10626220703125)" style="fill:rgb(192, 246, 210);stroke:none;transform:matrix(1, 0, 0, 1, 421.82, 360.106);;animation:none"></path>
<path stroke-width="1" stroke="#3a454a" d="M509.09 0L509.09 559" style="fill:rgb(0, 0, 0);stroke:rgb(58, 69, 74);;animation:none"></path>


<path filter="url(#f-jwk0tkw0j4)" fill="#c0f6d2" d="M0 0L-1 111.80 A1 1 0 0 0 1 111.80 Z" transform="matrix(1,0,0,1,509.0899963378906,196.0702667236328)" style="fill:rgb(192, 246, 210);stroke:none;transform:matrix(1, 0, 0, 1, 509.09, 196.07);;animation:none"></path>
<path stroke-width="1" stroke="#3a454a" d="M596.36 0L596.36 559" style="fill:rgb(0, 0, 0);stroke:rgb(58, 69, 74);;animation:none"></path>


<path filter="url(#f-jwk0tkw0j4)" fill="#fac090" d="M0 0L-1 111.80 A1 1 0 0 0 1 111.80 Z" transform="matrix(1,0,0,1,596.3599853515625,42.28648376464844)" style="fill:rgb(250, 192, 144);stroke:none;transform:matrix(1, 0, 0, 1, 596.36, 42.2865);;animation:none"></path>
<path stroke-width="1" stroke="#3a454a" d="M683.64 0L683.64 559" style="fill:rgb(0, 0, 0);stroke:rgb(58, 69, 74);;animation:none"></path>


<path filter="url(#f-jwk0tkw0j4)" fill="#ffffcb" d="M0 0L-1 111.80 A1 1 0 0 0 1 111.80 Z" transform="matrix(1,0,0,1,683.6400146484375,-15.126136779785156)" style="fill:rgb(255, 255, 203);stroke:none;transform:matrix(1, 0, 0, 1, 683.64, -15.1261);;animation:none"></path>
<path stroke-width="1" stroke="#3a454a" d="M770.91 0L770.91 559" style="fill:rgb(0, 0, 0);stroke:rgb(58, 69, 74);;animation:none"></path>


<path filter="url(#f-jwk0tkw0j4)" fill="#fac090" d="M0 0L-1 111.80 A1 1 0 0 0 1 111.80 Z" transform="matrix(1,0,0,1,770.9099731445312,113.34011840820312)" style="fill:rgb(250, 192, 144);stroke:none;transform:matrix(1, 0, 0, 1, 770.91, 113.34);;animation:none"></path>
<path stroke-width="1" stroke="#3a454a" d="M858.18 0L858.18 559" style="fill:rgb(0, 0, 0);stroke:rgb(58, 69, 74);;animation:none"></path>


<path filter="url(#f-jwk0tkw0j4)" fill="#c0f6d2" d="M0 0L-1 111.80 A1 1 0 0 0 1 111.80 Z" transform="matrix(1,0,0,1,858.1799926757812,36.1351318359375)" style="fill:rgb(192, 246, 210);stroke:none;transform:matrix(1, 0, 0, 1, 858.18, 36.1351);;animation:none"></path>
<path stroke-width="1" stroke="#3a454a" d="M945.45 0L945.45 559" style="fill:rgb(0, 0, 0);stroke:rgb(58, 69, 74);;animation:none"></path>


<path filter="url(#f-jwk0tkw0j4)" fill="#ffffcb" d="M0 0L-1 111.80 A1 1 0 0 0 1 111.80 Z" transform="matrix(1,0,0,1,945.4500122070312,-0.772979736328125)" style="fill:rgb(255, 255, 203);stroke:none;transform:matrix(1, 0, 0, 1, 945.45, -0.77298);;animation:none"></path>
<path stroke-width="1" stroke="#3a454a" d="M1032.73 0L1032.73 559" style="fill:rgb(0, 0, 0);stroke:rgb(58, 69, 74);;animation:none"></path>


<path filter="url(#f-jwk0tkw0j4)" fill="#ffffcb" d="M0 0L-1 111.80 A1 1 0 0 0 1 111.80 Z" transform="matrix(1,0,0,1,1032.72998046875,-74.58918762207031)" style="fill:rgb(255, 255, 203);stroke:none;transform:matrix(1, 0, 0, 1, 1032.73, -74.5892);;animation:none"></path>
<g style="fill:rgb(0, 0, 0);stroke:none;;animation:none"></g></g><!-- [ldio] generated by https://loading.io --></svg>